<svg id="Layer_1" data-name="Layer 1" xmlns="http://www.w3.org/2000/svg" viewBox="0 0 2028.97 2296.51"><defs><style>.cls-1{fill:#fff;}.cls-2{fill:#ec008c;}.cls-3{fill:#00a79d;}</style></defs><title>Management_Icon</title><path class="cls-1" d="M2056.59,1914.17H220.13a60.8,60.8,0,1,1,0-121.6H2056.59a60.8,60.8,0,0,1,0,121.6Z" transform="translate(-88.42 -45.94)"/><path class="cls-1" d="M2056.59,2342.45H220.13a60.8,60.8,0,0,1,0-121.6H2056.59a60.8,60.8,0,0,1,0,121.6Z" transform="translate(-88.42 -45.94)"/><path class="cls-1" d="M1170.61,1494.92c-398.49,0-722.68-324.19-722.68-722.68S772.12,49.55,1170.61,49.55s722.7,324.21,722.7,722.69S1569.1,1494.92,1170.61,1494.92Zm0-1323.77c-331.43,0-601.08,269.64-601.08,601.09s269.65,601.08,601.08,601.08,601.1-269.64,601.1-601.08S1502.06,171.15,1170.61,171.15Z" transform="translate(-88.42 -45.94)"/><path class="cls-1" d="M1082.58,1029.88h-.76a60.81,60.81,0,0,1-43-18.55L888.68,856a60.8,60.8,0,0,1,87.44-84.51L1083.64,882.7,1369,601.86a60.8,60.8,0,0,1,85.31,86.65L1125.23,1012.4A60.81,60.81,0,0,1,1082.58,1029.88Z" transform="translate(-88.42 -45.94)"/></svg>