<svg id="Layer_1" data-name="Layer 1" xmlns="http://www.w3.org/2000/svg" viewBox="0 0 3950.6 5524.08"><defs><style>.cls-1{fill:#fff;}.cls-2{fill:#2b3990;}.cls-3{fill:#ec008c;}.cls-4{fill:#00a79d;}</style></defs><title>Data_Icon</title><path class="cls-1" d="M2064.17,46.58C1105.82,46.58,88.42,331.35,88.42,859.45a215.08,215.08,0,0,0,.88,23.8h-.88v4082a352.39,352.39,0,0,0,30,44.08c231,305.93,888.68,560.72,1941.35,560.72s1710.38-254.79,1941.36-560.72a460.36,460.36,0,0,0,30.86-45.84V931.74a393.75,393.75,0,0,0,7.05-72.29C4039,331.35,3021.62,46.58,2064.17,46.58ZM3749.85,4871.77c-184.26,196.6-804.93,412.6-1690.1,412.6-882.51,0-1501.42-214.23-1689.21-410.84v-983c331.5,201.89,899.27,345.6,1689.21,345.6,790.83,0,1358.61-143.71,1690.1-345.6Zm0-1334.8c-184.26,196.61-804.93,412.61-1690.1,412.61-882.51,0-1501.42-214.24-1689.21-410.84V2560.12c331.5,201.9,899.27,345.6,1689.21,345.6,790.83,0,1358.61-143.7,1690.1-345.6Zm0-1329.5c-186,196.6-805.81,411.72-1690.1,411.72-883.39,0-1502.3-214.23-1689.21-410.84V1293.21c368.53,248.62,1044.74,379.11,1693.63,379.11,643.59,0,1315.39-128.72,1685.68-374.7Zm4.41-1324.22a74.63,74.63,0,0,1-4.41,15c-71.41,213.35-713.24,492-1685.68,492-1034.17,0-1693.63-313.86-1693.63-530.74,0-216,659.46-530.75,1693.63-530.75,1033.27,0,1692.73,314.75,1692.73,530.75A109.52,109.52,0,0,1,3754.26,883.25Z" transform="translate(-88.42 -45.94)"/><circle class="cls-1" cx="3194.07" cy="1898.06" r="178.53"/><circle class="cls-1" cx="3194.07" cy="3191.65" r="178.53"/><circle class="cls-1" cx="3194.07" cy="4549.47" r="178.53"/></svg>