<svg id="Layer_1" data-name="Layer 1" xmlns="http://www.w3.org/2000/svg" viewBox="0 0 3892.82 4375.36"><defs><style>.cls-1{fill:#be1e2d;}.cls-2{fill:#2b3990;}.cls-3{fill:#ec008c;}.cls-4{fill:#fff;}.cls-5{fill:#00a79d;}</style></defs><title>Search_icon</title><path class="cls-1" d="M110.83,46.58c-10.87,0-22.41,3.23-22.41,9.22a2.44,2.44,0,0,0,0,.27h0v46.3a4,4,0,0,0,.34.5c2.62,3.47,10.08,6.36,22,6.36s19.4-2.89,22-6.36a5.26,5.26,0,0,0,.35-.52V56.62a4.47,4.47,0,0,0,.08-.82C133.23,49.81,121.69,46.58,110.83,46.58ZM130,101.31c-2.09,2.23-9.13,4.68-19.17,4.68s-17-2.43-19.16-4.66V90.18c3.76,2.29,10.2,3.92,19.16,3.92s15.41-1.63,19.17-3.92Zm0-15.14c-2.09,2.23-9.13,4.68-19.17,4.68s-17-2.43-19.16-4.66V75.09c3.76,2.29,10.2,3.92,19.16,3.92s15.41-1.63,19.17-3.92Zm0-15.08c-2.11,2.23-9.14,4.67-19.17,4.67s-17-2.43-19.16-4.66V60.72c4.18,2.82,11.85,4.3,19.21,4.3s14.92-1.46,19.12-4.25Zm.05-15a.84.84,0,0,1-.05.17c-.81,2.42-8.09,5.58-19.12,5.58-11.73,0-19.21-3.56-19.21-6s7.48-6,19.21-6,19.2,3.57,19.2,6A1.24,1.24,0,0,1,130,56.07Z" transform="translate(480.63 -45.94)"/><circle class="cls-1" cx="605.27" cy="22.17" r="2.02"/><circle class="cls-1" cx="605.27" cy="36.84" r="2.02"/><circle class="cls-1" cx="605.27" cy="52.24" r="2.02"/><path class="cls-2" d="M206.13,95.55h-45.3a1.5,1.5,0,0,1,0-3h45.3a1.5,1.5,0,0,1,0,3Z" transform="translate(480.63 -45.94)"/><path class="cls-2" d="M206.13,106.11h-45.3a1.5,1.5,0,0,1,0-3h45.3a1.5,1.5,0,0,1,0,3Z" transform="translate(480.63 -45.94)"/><path class="cls-2" d="M184.28,85.2A17.83,17.83,0,1,1,202.1,67.38,17.84,17.84,0,0,1,184.28,85.2Zm0-32.65A14.83,14.83,0,1,0,199.1,67.38,14.84,14.84,0,0,0,184.28,52.55Z" transform="translate(480.63 -45.94)"/><path class="cls-2" d="M182.1,73.73h0a1.48,1.48,0,0,1-1.06-.46l-3.7-3.83a1.5,1.5,0,0,1,2.16-2.08l2.65,2.74,7-6.93a1.5,1.5,0,0,1,2.1,2.14l-8.11,8A1.49,1.49,0,0,1,182.1,73.73Z" transform="translate(480.63 -45.94)"/><path class="cls-3" d="M286.88,79.19c1-1,1.95-2,2.8-3.06,4.51-5.44,5.94-10.26,4-13.57s-6.8-4.47-13.76-3.29c-1.3.22-2.64.52-4,.89-2.33-8.71-6.31-14.22-11-14.22s-8.68,5.51-11,14.22c-1.38-.37-2.72-.67-4-.89-7-1.18-11.86,0-13.76,3.29s-.48,8.13,4,13.57c.84,1,1.76,2,2.77,3-6.37,6.39-9.15,12.59-6.8,16.65,1.42,2.47,4.5,3.74,8.86,3.74a29.54,29.54,0,0,0,4.9-.45c1.29-.22,2.63-.51,4-.88,2.34,8.71,6.32,14.22,11,14.22s8.68-5.51,11-14.22c1.38.36,2.72.66,4,.88a29.54,29.54,0,0,0,4.9.45,14.48,14.48,0,0,0,5.53-.94,6.69,6.69,0,0,0,3.33-2.8c1.91-3.3.48-8.12-4-13.56C288.83,81.23,287.9,80.2,286.88,79.19Zm-37.49,17c-5.48.94-9.47.25-10.67-1.83-1.47-2.55.9-7.54,6.41-13.06a68.72,68.72,0,0,0,6.82,5.4,69.13,69.13,0,0,0,1.25,8.65Q251.24,95.83,249.39,96.14Zm2.32-13.36c-1.57-1.17-3-2.37-4.39-3.59q2-1.8,4.39-3.6c-.05,1.18-.07,2.38-.07,3.6S251.66,81.6,251.71,82.78ZM252,71.7a70,70,0,0,0-6.84,5.4c-1-.95-1.84-1.92-2.64-2.88-3.55-4.28-4.95-8.08-3.75-10.16.85-1.46,3.09-2.24,6.26-2.24a27,27,0,0,1,4.41.41q1.85.32,3.81.84A70.68,70.68,0,0,0,252,71.7Zm28.5-9.47a27,27,0,0,1,4.41-.41c3.17,0,5.41.78,6.25,2.24,1.2,2.08-.2,5.88-3.74,10.16a39.1,39.1,0,0,1-2.66,2.9,70.38,70.38,0,0,0-6.83-5.4,71,71,0,0,0-1.25-8.65C277.94,62.72,279.22,62.44,280.45,62.23Zm-2.33,13.36q2.36,1.77,4.4,3.6c-1.36,1.22-2.84,2.43-4.41,3.6.06-1.18.08-2.38.08-3.6S278.17,76.77,278.12,75.59Zm-3.49-6c-1-.63-2-1.25-3.07-1.86s-2.1-1.19-3.16-1.73c1.81-.78,3.59-1.45,5.32-2Q274.27,66.57,274.63,69.55Zm-9.71-20.61c2.94,0,6.08,4.54,8.1,12.08a71.94,71.94,0,0,0-8.1,3.21,71.94,71.94,0,0,0-8.1-3.21C258.84,53.48,262,48.94,264.92,48.94Zm-8.8,15c1.73.57,3.51,1.24,5.31,2-1.05.55-2.1,1.12-3.15,1.73s-2.08,1.23-3.08,1.87C255.44,67.57,255.75,65.69,256.12,63.94Zm-1.28,9.43q2.32-1.56,4.94-3.08c1.71-1,3.43-1.9,5.14-2.73,1.71.83,3.43,1.75,5.14,2.73s3.36,2,4.93,3.07c.13,1.86.2,3.81.2,5.83s-.07,4-.2,5.82c-1.57,1.06-3.22,2.09-4.93,3.08s-3.43,1.9-5.14,2.73c-1.71-.83-3.43-1.74-5.14-2.73s-3.37-2-4.94-3.09c-.13-1.86-.2-3.8-.2-5.81S254.71,75.23,254.84,73.37Zm18.88,21.06c-1.73-.56-3.51-1.24-5.32-2,1.06-.55,2.11-1.13,3.16-1.74s2.07-1.22,3.07-1.86C274.4,90.81,274.09,92.68,273.72,94.43Zm-12.28-2c-1.81.78-3.59,1.45-5.32,2-.37-1.75-.68-3.63-.92-5.62,1,.64,2,1.27,3.08,1.87S260.38,91.87,261.44,92.41Zm3.48,17c-2.94,0-6.08-4.55-8.1-12.09a68.34,68.34,0,0,0,8.1-3.21,68.34,68.34,0,0,0,8.1,3.21C271,104.89,267.86,109.44,264.92,109.44Zm26.19-15.13c-1.2,2.08-5.18,2.77-10.66,1.83-1.23-.21-2.51-.49-3.82-.84a69.23,69.23,0,0,0,1.25-8.64,72,72,0,0,0,6.83-5.4,39.1,39.1,0,0,1,2.66,2.9c2.71,3.27,4.16,6.26,4.16,8.41A3.48,3.48,0,0,1,291.11,94.31Z" transform="translate(480.63 -45.94)"/><circle class="cls-3" cx="745.55" cy="33.25" r="3.81"/><path class="cls-4" d="M1833,48.54c-870.47,0-1578.5,708-1578.5,1578.5,0,469.84,206.14,892.33,532.48,1181.52L-453.58,4240.65a108.84,108.84,0,0,0,10.93,154.42,109.45,109.45,0,0,0,71.38,26.23c30.6,0,61.19-12.39,82.32-37.15L956.66,2947.68a12.9,12.9,0,0,0,3.64-5.09c249.85,166.81,550,263.69,872.66,263.69,870.47,0,1579.23-708.76,1579.23-1579.24S2703.43,48.54,1833,48.54Zm0,2939.21c-749.55,0-1360-610.42-1360-1360.71,0-749.55,610.42-1360,1360-1360,750.28,0,1360.7,610.42,1360.7,1360C3193.66,2377.33,2583.24,2987.75,1833,2987.75Z" transform="translate(480.63 -45.94)"/><path class="cls-5" d="M449.52,96.94l-16.2-16.28,12.81-12.82a8.87,8.87,0,0,0,0-12.54l-.29-.3a8.88,8.88,0,0,0-12.54,0L420.48,67.82,404.57,51.94a1.51,1.51,0,0,0-2.12,0L391.73,62.65a1.52,1.52,0,0,0,0,2.13l15.91,15.88L396.81,91.5a1.46,1.46,0,0,0-.9,1.15l-2,12.9a1.48,1.48,0,0,0,1.47,1.7h.22l12.91-2a1.48,1.48,0,0,0,1.17-1L420.48,93.5l16.2,16.28a1.52,1.52,0,0,0,1.06.43,1.48,1.48,0,0,0,1.06-.43l10.72-10.72a1.5,1.5,0,0,0,0-2.12Zm-14.1-39.81a5.87,5.87,0,0,1,8.3,0l.29.29a5.87,5.87,0,0,1,0,8.3l-2.53,2.53-8.59-8.59Zm-4.65,4.65,8.59,8.59-8.16,8.17L422.61,70ZM397.16,104l1.23-8,6.78,6.78Zm11.06-2.49-8.59-8.59,10.14-10.13,8.59,8.59Zm29.52,5.08L394.91,63.71l8.6-8.59,3.84,3.81-2.61,2.61a1.5,1.5,0,0,0,1.06,2.56,1.49,1.49,0,0,0,1.06-.44l2.61-2.61,5.67,5.68-2.6,2.6a1.49,1.49,0,0,0,0,2.12,1.45,1.45,0,0,0,1.06.44,1.48,1.48,0,0,0,1.06-.44l2.6-2.6,1.1,1.09L419.42,71l1.06,1.06,3.25,3.24-2.61,2.61a1.49,1.49,0,0,0,0,2.12,1.5,1.5,0,0,0,2.12,0l2.61-2.61,3.22,3.23,2.12,2.12.33.32-2.61,2.61a1.51,1.51,0,0,0,0,2.12,1.48,1.48,0,0,0,1.06.44,1.45,1.45,0,0,0,1.06-.44l2.61-2.61L439.43,91l-2.61,2.61a1.49,1.49,0,0,0,0,2.12,1.5,1.5,0,0,0,2.12,0l2.61-2.61L446.33,98Z" transform="translate(480.63 -45.94)"/></svg>