<svg id="Layer_1" data-name="Layer 1" xmlns="http://www.w3.org/2000/svg" viewBox="0 0 2446.82 2582.13"><defs><style>.cls-3{fill:rgba(0,63,62,.3)}</style></defs><title>Reactive_icon</title><path class="cls-3" d="M2238,1337c39.6-39.22,75.71-79.22,108.72-118.82C2521.83,1007,2577.35,819.8,2503.19,691.28c-74.17-128.14-264-173.57-534.29-127.75-50.48,8.54-102.51,20.19-156.09,34.56-90.47-338.2-245-552.15-427.51-552.15s-337,214-427.9,552.15c-53.58-14.37-105.61-26-155.7-34.56-270.64-45.82-460.51-.39-534.29,127.75C193.25,819.8,248.77,1007,423.89,1218.19c32.62,39.22,68.34,78.43,107.56,117.65-247.34,248.12-355.29,488.86-264,646.51,55.14,95.9,174.73,145.22,344,145.22,57.85,0,121.53-5.83,190.26-17.48,50.09-8.54,102.12-19.8,155.7-34.17,90.86,338.2,245.4,552.15,427.9,552.15s337-214,427.51-552.15c53.58,14,105.61,25.63,156.09,34.17,68.73,11.65,132.41,17.48,190.26,17.48,84.65,0,156.87-12.43,214.73-36.5,58.24-24.47,101.73-61,129.3-108.72,74.16-128.14,18.64-315.3-156.48-526.53C2313.7,1416.22,2277.59,1376.22,2238,1337ZM782.28,1995.16c-212.78,36.5-367.71,9.71-414.3-71.06-57.08-99,34.94-292.77,248.89-507.11,79.21,71.84,168.52,142.51,264.82,209.68,10.09,120,26.4,232.59,48.53,335.87Q853.93,1982.93,782.28,1995.16Zm90.09-518.76c-61-45.43-118-92-170.46-139.39q77.46-69.9,170.46-139.79c-1.94,45.82-2.72,92.41-2.72,139.79S870.43,1430.58,872.37,1476.4Zm9.32-430.22c-98.24,68.72-187.55,139-265.59,209.67C578.82,1219,544.65,1181.3,513.59,1144,375.74,977.84,321.38,830.29,368,749.52c33-56.69,120-87,243.07-87,51.25,0,108.72,5.43,171.23,15.91q71.64,12.24,147.94,32.62C908.48,814,891.78,926.58,881.69,1046.18ZM1988.32,678.46c62.51-10.48,120-15.91,171.23-15.91,123.09,0,210.07,30.28,242.68,87,46.6,80.77-7.76,228.32-145.22,394.5a1518.09,1518.09,0,0,1-103.28,112.61c-79.6-71.84-168.52-142.12-265.21-209.68-10.09-120-26.79-232.58-48.53-335.87C1890.85,697.49,1940.55,686.62,1988.32,678.46Zm-90.48,518.76q91.46,68.73,170.85,139.79c-52.81,47.37-110.27,94.35-171.24,139.78,2.33-45.82,3.11-92.41,3.11-139.78S1899.78,1243,1897.84,1197.22ZM1762.33,962.69c-38.83-24.46-78.82-48.53-119.21-72.22-40.77-23.69-81.54-46.2-122.69-67.17C1590.71,793,1659.82,767,1727,744.86Q1748.54,846.78,1762.33,962.69Zm-377-800.26c114.16,0,236.08,176.28,314.52,469.05-101.74,33-207.74,74.94-314.52,124.64-106.78-49.7-212.78-91.63-314.52-124.64C1149.22,338.71,1271.14,162.43,1385.3,162.43ZM1043.6,744.86C1110.78,767,1179.89,793,1249.79,823.3c-40.77,21.35-81.54,43.48-122.31,67.17-41.17,23.69-80.77,47.76-119.6,72.61C1017.2,885.81,1029.24,812.81,1043.6,744.86ZM993.9,1111q90.28-60.57,191.82-119.59c66.4-38.44,133.18-73.78,199.58-106,66.4,32.23,133.18,68,199.58,106s130.47,78,191.43,119.2c5,72.22,7.76,147.94,7.76,226.38,0,78-2.71,153.76-7.76,226-61,41.16-125,81.15-191.43,119.59-66.4,38.06-133.18,73.78-199.58,106-66.4-32.23-133.18-67.57-199.58-106s-130.86-78.43-191.82-120c-5-72.22-7.76-147.55-7.76-225.59S988.86,1183.24,993.9,1111ZM1727,1928.76c-67.17-21.74-136.28-48.15-206.56-78,41.15-21.35,81.92-43.87,122.69-67.56,40.39-23.3,80.38-47.37,119.21-72.22C1753.4,1788.2,1741.36,1860.81,1727,1928.76Zm-476.82-78.43c-70.28,30.28-139.39,56.3-206.57,78.43-14.36-68-26.4-141-35.72-218.22,38.83,24.85,78.82,49.31,119.6,72.61C1168.25,1806.84,1209,1829.36,1250.17,1850.33Zm135.13,661.26c-114.16,0-236.08-176.68-314.52-469.45,101.74-32.61,207.74-74.55,314.52-124.64,106.78,50.09,212.78,92,314.52,124.64C1621.38,2334.91,1499.46,2511.59,1385.3,2511.59ZM2402.23,1924.1c-46.59,80.77-201.13,107.56-413.91,71.06-47.77-8.16-97.47-19-148.33-32.62,22.13-103.28,38.44-215.89,48.53-335.48,96.69-67.56,185.61-138.23,265.21-209.68A1518.09,1518.09,0,0,1,2257,1530c105.23,127,161.53,243.07,161.53,326.55C2418.54,1882.17,2413.11,1905.08,2402.23,1924.1Z" transform="translate(-88.42 -45.94)"/><circle class="cls-3" cx="1296.82" cy="1291" r="147.77"/></svg>