<svg id="Layer_1" data-name="Layer 1" xmlns="http://www.w3.org/2000/svg" viewBox="0 0 4215.47 4218.36"><defs><style>.cls-2{fill:rgba(39,144,144,.7)}</style></defs><title>UX_Design_Icon</title><path class="cls-1" d="M110.83,46.58c-10.87,0-22.41,3.23-22.41,9.22a2.44,2.44,0,0,0,0,.27h0v46.3a4,4,0,0,0,.34.5c2.62,3.47,10.08,6.36,22,6.36s19.4-2.89,22-6.36a5.26,5.26,0,0,0,.35-.52V56.62a4.47,4.47,0,0,0,.08-.82C133.23,49.81,121.69,46.58,110.83,46.58ZM130,101.31c-2.09,2.23-9.13,4.68-19.17,4.68s-17-2.43-19.16-4.66V90.18c3.76,2.29,10.2,3.92,19.16,3.92s15.41-1.63,19.17-3.92Zm0-15.14c-2.09,2.23-9.13,4.68-19.17,4.68s-17-2.43-19.16-4.66V75.09c3.76,2.29,10.2,3.92,19.16,3.92s15.41-1.63,19.17-3.92Zm0-15.08c-2.11,2.23-9.14,4.67-19.17,4.67s-17-2.43-19.16-4.66V60.72c4.18,2.82,11.85,4.3,19.21,4.3s14.92-1.46,19.12-4.25Zm.05-15a.84.84,0,0,1-.05.17c-.81,2.42-8.09,5.58-19.12,5.58-11.73,0-19.21-3.56-19.21-6s7.48-6,19.21-6,19.2,3.57,19.2,6A1.24,1.24,0,0,1,130,56.07Z" transform="translate(651.46 991.97)"/><circle class="cls-2" cx="776.11" cy="1060.07" r="2.02"/><circle class="cls-2" cx="776.11" cy="1074.74" r="2.02"/><circle class="cls-1" cx="776.11" cy="1090.14" r="2.02"/><path class="cls-2" d="M206.13,95.55h-45.3a1.5,1.5,0,0,1,0-3h45.3a1.5,1.5,0,0,1,0,3Z" transform="translate(651.46 991.97)"/><path class="cls-2" d="M206.13,106.11h-45.3a1.5,1.5,0,0,1,0-3h45.3a1.5,1.5,0,0,1,0,3Z" transform="translate(651.46 991.97)"/><path class="cls-2" d="M184.28,85.2A17.83,17.83,0,1,1,202.1,67.38,17.84,17.84,0,0,1,184.28,85.2Zm0-32.65A14.83,14.83,0,1,0,199.1,67.38,14.84,14.84,0,0,0,184.28,52.55Z" transform="translate(651.46 991.97)"/><path class="cls-2" d="M182.1,73.73h0a1.48,1.48,0,0,1-1.06-.46l-3.7-3.83a1.5,1.5,0,0,1,2.16-2.08l2.65,2.74,7-6.93a1.5,1.5,0,0,1,2.1,2.14l-8.11,8A1.49,1.49,0,0,1,182.1,73.73Z" transform="translate(651.46 991.97)"/><path class="cls-2" d="M354.62,48.54a21.66,21.66,0,0,0-14.36,37.89l-17,19.66a1.49,1.49,0,0,0,1.13,2.48,1.48,1.48,0,0,0,1.13-.51l17.1-19.72a.18.18,0,0,0,.05-.07,21.67,21.67,0,1,0,12-39.73Zm0,40.35A18.68,18.68,0,1,1,373.3,70.21,18.7,18.7,0,0,1,354.62,88.89Z" transform="translate(651.46 991.97)"/><path class="cls-2" d="M3532.38,2272.84l-1163.79-1170,920.5-921.22c248.63-248.62,248.63-652.47,0-901.1L3268.25-741c-120-120-280.25-186.12-450.55-186.12S2487.87-861,2367.15-741L1445.93,180.2,302.45-960.71c-42.4-41.68-110.66-41.68-152.34,0l-770.32,769.6a109.33,109.33,0,0,0,0,153.06L523.27,1102.85l-778.22,779c-34.49,14.37-59.64,45.27-64.67,82.63l-143,927c-5,33.06,6.46,67.55,30.18,91.26a106.56,106.56,0,0,0,75.45,30.9,116.22,116.22,0,0,0,15.81-.72l927.69-143c38.8-5.74,70.42-32.33,84.07-69.7l775.35-774.63,1163.8,1170a108.89,108.89,0,0,0,76.17,30.89c28,0,55.33-10.06,76.17-30.89l770.31-770.33a107.54,107.54,0,0,0,0-152.33ZM2519.49-588c79.76-79.76,185.39-123.59,298.21-123.59S3036.15-667.73,3115.91-588l20.84,20.84c164.56,164.55,164.56,431.87,0,596.42L2955,211.1,2337.69-406.17ZM2185.35-253.83l617.26,617.26L2216.25,950.51,1599,333.26ZM-229.8,2780l88.38-575.58,487.2,487.2ZM565,2601.1-52.31,1983.83l728.64-727.92,617.26,617.26Zm2121,365.17L-391.7-114.94l618-617.26L502.43-458.62,314.89-271.07c-41.68,41.68-41.68,109.94,0,152.34a108.35,108.35,0,0,0,76.16,31.61,107.14,107.14,0,0,0,76.17-31.61L654.77-306.28l407.44,408.15L875.38,288.7C833,331.1,833,399.36,875.38,441c20.83,21.56,48.14,31.62,76.17,31.62A106.61,106.61,0,0,0,1027.72,441l186.83-186.83,79,78.33,76.17,76.88,76.17,76.17,233.54,232.82L1491.92,906c-42.4,41.68-42.4,109.95,0,152.34a107.55,107.55,0,0,0,152.34,0l187.55-187.55,231.38,232.1,152.34,152.34,23.71,23-187.55,187.55c-41.68,42.39-41.68,110.66,0,152.34a106.65,106.65,0,0,0,76.17,31.62c28,0,55.34-10.07,76.17-31.62l187.55-187.55,416.06,416.06-187.55,187.55c-42.39,41.67-42.39,109.94,0,152.33a107.55,107.55,0,0,0,152.34,0L2960,1998.93,3303.16,2349Z" transform="translate(651.46 991.97)"/></svg>