<svg id="Layer_1" data-name="Layer 1" xmlns="http://www.w3.org/2000/svg" viewBox="0 0 4215.47 4218.36"><defs><style>.cls-1{fill:#be1e2d;}.cls-2{fill:#2b3990;}.cls-3{fill:#ec008c;}.cls-4{fill:#fff;}</style></defs><title>UX_Design_Icon</title><path class="cls-1" d="M110.83,46.58c-10.87,0-22.41,3.23-22.41,9.22a2.44,2.44,0,0,0,0,.27h0v46.3a4,4,0,0,0,.34.5c2.62,3.47,10.08,6.36,22,6.36s19.4-2.89,22-6.36a5.26,5.26,0,0,0,.35-.52V56.62a4.47,4.47,0,0,0,.08-.82C133.23,49.81,121.69,46.58,110.83,46.58ZM130,101.31c-2.09,2.23-9.13,4.68-19.17,4.68s-17-2.43-19.16-4.66V90.18c3.76,2.29,10.2,3.92,19.16,3.92s15.41-1.63,19.17-3.92Zm0-15.14c-2.09,2.23-9.13,4.68-19.17,4.68s-17-2.43-19.16-4.66V75.09c3.76,2.29,10.2,3.92,19.16,3.92s15.41-1.63,19.17-3.92Zm0-15.08c-2.11,2.23-9.14,4.67-19.17,4.67s-17-2.43-19.16-4.66V60.72c4.18,2.82,11.85,4.3,19.21,4.3s14.92-1.46,19.12-4.25Zm.05-15a.84.84,0,0,1-.05.17c-.81,2.42-8.09,5.58-19.12,5.58-11.73,0-19.21-3.56-19.21-6s7.48-6,19.21-6,19.2,3.57,19.2,6A1.24,1.24,0,0,1,130,56.07Z" transform="translate(651.46 991.97)"/><circle class="cls-1" cx="776.11" cy="1060.07" r="2.02"/><circle class="cls-1" cx="776.11" cy="1074.74" r="2.02"/><circle class="cls-1" cx="776.11" cy="1090.14" r="2.02"/><path class="cls-2" d="M206.13,95.55h-45.3a1.5,1.5,0,0,1,0-3h45.3a1.5,1.5,0,0,1,0,3Z" transform="translate(651.46 991.97)"/><path class="cls-2" d="M206.13,106.11h-45.3a1.5,1.5,0,0,1,0-3h45.3a1.5,1.5,0,0,1,0,3Z" transform="translate(651.46 991.97)"/><path class="cls-2" d="M184.28,85.2A17.83,17.83,0,1,1,202.1,67.38,17.84,17.84,0,0,1,184.28,85.2Zm0-32.65A14.83,14.83,0,1,0,199.1,67.38,14.84,14.84,0,0,0,184.28,52.55Z" transform="translate(651.46 991.97)"/><path class="cls-2" d="M182.1,73.73h0a1.48,1.48,0,0,1-1.06-.46l-3.7-3.83a1.5,1.5,0,0,1,2.16-2.08l2.65,2.74,7-6.93a1.5,1.5,0,0,1,2.1,2.14l-8.11,8A1.49,1.49,0,0,1,182.1,73.73Z" transform="translate(651.46 991.97)"/><path class="cls-3" d="M286.88,79.19c1-1,1.95-2,2.8-3.06,4.51-5.44,5.94-10.26,4-13.57s-6.8-4.47-13.76-3.29c-1.3.22-2.64.52-4,.89-2.33-8.71-6.31-14.22-11-14.22s-8.68,5.51-11,14.22c-1.38-.37-2.72-.67-4-.89-7-1.18-11.86,0-13.76,3.29s-.48,8.13,4,13.57c.84,1,1.76,2,2.77,3-6.37,6.39-9.15,12.59-6.8,16.65,1.42,2.47,4.5,3.74,8.86,3.74a29.54,29.54,0,0,0,4.9-.45c1.29-.22,2.63-.51,4-.88,2.34,8.71,6.32,14.22,11,14.22s8.68-5.51,11-14.22c1.38.36,2.72.66,4,.88a29.54,29.54,0,0,0,4.9.45,14.48,14.48,0,0,0,5.53-.94,6.69,6.69,0,0,0,3.33-2.8c1.91-3.3.48-8.12-4-13.56C288.83,81.23,287.9,80.2,286.88,79.19Zm-37.49,17c-5.48.94-9.47.25-10.67-1.83-1.47-2.55.9-7.54,6.41-13.06a68.72,68.72,0,0,0,6.82,5.4,69.13,69.13,0,0,0,1.25,8.65Q251.24,95.83,249.39,96.14Zm2.32-13.36c-1.57-1.17-3-2.37-4.39-3.59q2-1.8,4.39-3.6c-.05,1.18-.07,2.38-.07,3.6S251.66,81.6,251.71,82.78ZM252,71.7a70,70,0,0,0-6.84,5.4c-1-.95-1.84-1.92-2.64-2.88-3.55-4.28-4.95-8.08-3.75-10.16.85-1.46,3.09-2.24,6.26-2.24a27,27,0,0,1,4.41.41q1.85.32,3.81.84A70.68,70.68,0,0,0,252,71.7Zm28.5-9.47a27,27,0,0,1,4.41-.41c3.17,0,5.41.78,6.25,2.24,1.2,2.08-.2,5.88-3.74,10.16a39.1,39.1,0,0,1-2.66,2.9,70.38,70.38,0,0,0-6.83-5.4,71,71,0,0,0-1.25-8.65C277.94,62.72,279.22,62.44,280.45,62.23Zm-2.33,13.36q2.36,1.77,4.4,3.6c-1.36,1.22-2.84,2.43-4.41,3.6.06-1.18.08-2.38.08-3.6S278.17,76.77,278.12,75.59Zm-3.49-6c-1-.63-2-1.25-3.07-1.86s-2.1-1.19-3.16-1.73c1.81-.78,3.59-1.45,5.32-2Q274.27,66.57,274.63,69.55Zm-9.71-20.61c2.94,0,6.08,4.54,8.1,12.08a71.94,71.94,0,0,0-8.1,3.21,71.94,71.94,0,0,0-8.1-3.21C258.84,53.48,262,48.94,264.92,48.94Zm-8.8,15c1.73.57,3.51,1.24,5.31,2-1.05.55-2.1,1.12-3.15,1.73s-2.08,1.23-3.08,1.87C255.44,67.57,255.75,65.69,256.12,63.94Zm-1.28,9.43q2.32-1.56,4.94-3.08c1.71-1,3.43-1.9,5.14-2.73,1.71.83,3.43,1.75,5.14,2.73s3.36,2,4.93,3.07c.13,1.86.2,3.81.2,5.83s-.07,4-.2,5.82c-1.57,1.06-3.22,2.09-4.93,3.08s-3.43,1.9-5.14,2.73c-1.71-.83-3.43-1.74-5.14-2.73s-3.37-2-4.94-3.09c-.13-1.86-.2-3.8-.2-5.81S254.71,75.23,254.84,73.37Zm18.88,21.06c-1.73-.56-3.51-1.24-5.32-2,1.06-.55,2.11-1.13,3.16-1.74s2.07-1.22,3.07-1.86C274.4,90.81,274.09,92.68,273.72,94.43Zm-12.28-2c-1.81.78-3.59,1.45-5.32,2-.37-1.75-.68-3.63-.92-5.62,1,.64,2,1.27,3.08,1.87S260.38,91.87,261.44,92.41Zm3.48,17c-2.94,0-6.08-4.55-8.1-12.09a68.34,68.34,0,0,0,8.1-3.21,68.34,68.34,0,0,0,8.1,3.21C271,104.89,267.86,109.44,264.92,109.44Zm26.19-15.13c-1.2,2.08-5.18,2.77-10.66,1.83-1.23-.21-2.51-.49-3.82-.84a69.23,69.23,0,0,0,1.25-8.64,72,72,0,0,0,6.83-5.4,39.1,39.1,0,0,1,2.66,2.9c2.71,3.27,4.16,6.26,4.16,8.41A3.48,3.48,0,0,1,291.11,94.31Z" transform="translate(651.46 991.97)"/><circle class="cls-3" cx="916.38" cy="1071.15" r="3.81"/><path class="cls-3" d="M354.62,48.54a21.66,21.66,0,0,0-14.36,37.89l-17,19.66a1.49,1.49,0,0,0,1.13,2.48,1.48,1.48,0,0,0,1.13-.51l17.1-19.72a.18.18,0,0,0,.05-.07,21.67,21.67,0,1,0,12-39.73Zm0,40.35A18.68,18.68,0,1,1,373.3,70.21,18.7,18.7,0,0,1,354.62,88.89Z" transform="translate(651.46 991.97)"/><path class="cls-4" d="M3532.38,2272.84l-1163.79-1170,920.5-921.22c248.63-248.62,248.63-652.47,0-901.1L3268.25-741c-120-120-280.25-186.12-450.55-186.12S2487.87-861,2367.15-741L1445.93,180.2,302.45-960.71c-42.4-41.68-110.66-41.68-152.34,0l-770.32,769.6a109.33,109.33,0,0,0,0,153.06L523.27,1102.85l-778.22,779c-34.49,14.37-59.64,45.27-64.67,82.63l-143,927c-5,33.06,6.46,67.55,30.18,91.26a106.56,106.56,0,0,0,75.45,30.9,116.22,116.22,0,0,0,15.81-.72l927.69-143c38.8-5.74,70.42-32.33,84.07-69.7l775.35-774.63,1163.8,1170a108.89,108.89,0,0,0,76.17,30.89c28,0,55.33-10.06,76.17-30.89l770.31-770.33a107.54,107.54,0,0,0,0-152.33ZM2519.49-588c79.76-79.76,185.39-123.59,298.21-123.59S3036.15-667.73,3115.91-588l20.84,20.84c164.56,164.55,164.56,431.87,0,596.42L2955,211.1,2337.69-406.17ZM2185.35-253.83l617.26,617.26L2216.25,950.51,1599,333.26ZM-229.8,2780l88.38-575.58,487.2,487.2ZM565,2601.1-52.31,1983.83l728.64-727.92,617.26,617.26Zm2121,365.17L-391.7-114.94l618-617.26L502.43-458.62,314.89-271.07c-41.68,41.68-41.68,109.94,0,152.34a108.35,108.35,0,0,0,76.16,31.61,107.14,107.14,0,0,0,76.17-31.61L654.77-306.28l407.44,408.15L875.38,288.7C833,331.1,833,399.36,875.38,441c20.83,21.56,48.14,31.62,76.17,31.62A106.61,106.61,0,0,0,1027.72,441l186.83-186.83,79,78.33,76.17,76.88,76.17,76.17,233.54,232.82L1491.92,906c-42.4,41.68-42.4,109.95,0,152.34a107.55,107.55,0,0,0,152.34,0l187.55-187.55,231.38,232.1,152.34,152.34,23.71,23-187.55,187.55c-41.68,42.39-41.68,110.66,0,152.34a106.65,106.65,0,0,0,76.17,31.62c28,0,55.34-10.07,76.17-31.62l187.55-187.55,416.06,416.06-187.55,187.55c-42.39,41.67-42.39,109.94,0,152.33a107.55,107.55,0,0,0,152.34,0L2960,1998.93,3303.16,2349Z" transform="translate(651.46 991.97)"/></svg>